<svg xmlns="http://www.w3.org/2000/svg" viewBox="0 0 64 64" fill="none">
  <defs>
    <linearGradient id="favicon-mark" x1="14" y1="46" x2="51" y2="18" gradientUnits="userSpaceOnUse">
      <stop offset="0" stop-color="#0a87b3"/>
      <stop offset="0.55" stop-color="#18cce8"/>
      <stop offset="1" stop-color="#35f4ff"/>
    </linearGradient>
    <linearGradient id="favicon-wave" x1="31" y1="31" x2="56" y2="31" gradientUnits="userSpaceOnUse">
      <stop offset="0" stop-color="#14a8d2"/>
      <stop offset="0.6" stop-color="#27e4f3"/>
      <stop offset="1" stop-color="#39fbff"/>
    </linearGradient>
  </defs>

  <rect width="64" height="64" rx="16" fill="#071316"/>

  <path
    d="M15 14H30L35 24L40 14H51L32.5 51L15 14Z"
    fill="url(#favicon-mark)"
    stroke="#12394b"
    stroke-linejoin="round"
    stroke-width="1.6"
  />
  <path
    d="M22 19H27.5L32.5 29L37.5 19H44L32.5 42L22 19Z"
    fill="#071316"
    stroke="#12394b"
    stroke-linejoin="round"
    stroke-width="1.4"
  />
  <path
    d="M40 19H45.5L43.3 23.8H37.8L40 19Z"
    fill="url(#favicon-mark)"
    stroke="#12394b"
    stroke-linejoin="round"
    stroke-width="1.4"
  />

  <path
    d="M32 34.5C34.1 31.3 37.1 31.3 38.8 34.5L41.1 39C42.8 42.2 45.7 42.2 47.3 39L48.6 36.4C50.3 33.2 53.2 33.2 54.9 36.4C55.7 37.8 56.1 39 56.1 40.3"
    stroke="url(#favicon-wave)"
    stroke-linecap="round"
    stroke-linejoin="round"
    stroke-width="4.8"
  />
  <path
    d="M32 34.5C34.1 31.3 37.1 31.3 38.8 34.5L41.1 39C42.8 42.2 45.7 42.2 47.3 39L48.6 36.4C50.3 33.2 53.2 33.2 54.9 36.4C55.7 37.8 56.1 39 56.1 40.3"
    stroke="#12394b"
    stroke-linecap="round"
    stroke-linejoin="round"
    stroke-width="1.3"
  />
</svg>
