<svg xmlns="http://www.w3.org/2000/svg" viewBox="0 0 256 256" fill="none">
  <defs>
    <linearGradient id="volstream-mark" x1="56" y1="176" x2="200" y2="68" gradientUnits="userSpaceOnUse">
      <stop offset="0" stop-color="#0787b8"/>
      <stop offset="0.55" stop-color="#13c8ea"/>
      <stop offset="1" stop-color="#2ef5ff"/>
    </linearGradient>
    <linearGradient id="volstream-wave" x1="126" y1="122" x2="226" y2="122" gradientUnits="userSpaceOnUse">
      <stop offset="0" stop-color="#119dcc"/>
      <stop offset="0.58" stop-color="#27e8f6"/>
      <stop offset="1" stop-color="#34fbff"/>
    </linearGradient>
    <radialGradient id="volstream-glow" cx="0" cy="0" r="1" gradientUnits="userSpaceOnUse" gradientTransform="translate(134 122) rotate(90) scale(96 108)">
      <stop offset="0" stop-color="#1fe8ff" stop-opacity="0.62"/>
      <stop offset="0.55" stop-color="#17d4f1" stop-opacity="0.3"/>
      <stop offset="1" stop-color="#17d4f1" stop-opacity="0"/>
    </radialGradient>
    <filter id="volstream-soft-glow" x="8" y="16" width="240" height="224" filterUnits="userSpaceOnUse" color-interpolation-filters="sRGB">
      <feGaussianBlur stdDeviation="20"/>
    </filter>
  </defs>

  <ellipse cx="134" cy="122" rx="96" ry="88" fill="url(#volstream-glow)" filter="url(#volstream-soft-glow)"/>

  <path
    fill="url(#volstream-mark)"
    fill-rule="evenodd"
    d="M54 58H122L141 94L161 58H208L127 220L54 58ZM82 74H109L127 108L145 74H181L128 176L82 74Z"
    clip-rule="evenodd"
  />
  <path d="M54 58H122L141 94L161 58H208L127 220L54 58Z" stroke="#0f3448" stroke-opacity="0.92" stroke-width="2"/>
  <path d="M82 74H109L127 108L145 74H181L128 176L82 74Z" stroke="#0f3448" stroke-opacity="0.92" stroke-width="2"/>

  <path
    d="M156 74H188L176 100H145L156 74Z"
    fill="url(#volstream-mark)"
    stroke="#0f3448"
    stroke-opacity="0.92"
    stroke-width="2"
  />

  <path
    d="M129 124C139 108 154 108 162 124L176 151C184 167 198 167 206 151L213 137C221 121 235 121 243 137C247 145 249 151 249 157"
    stroke="url(#volstream-wave)"
    stroke-linecap="round"
    stroke-linejoin="round"
    stroke-width="15"
  />
  <path
    d="M129 124C139 108 154 108 162 124L176 151C184 167 198 167 206 151L213 137C221 121 235 121 243 137C247 145 249 151 249 157"
    stroke="#0f3448"
    stroke-linecap="round"
    stroke-linejoin="round"
    stroke-opacity="0.92"
    stroke-width="2.25"
  />
</svg>
